HIERARCHY
ROOT hip
{
  OFFSET 0 0 0
  CHANNELS 6 Xposition Yposition Zposition Zrotation Yrotation Xrotation
  JOINT abdomen
  {
    OFFSET 0 20.6881 -0.73152
    CHANNELS 3 Zrotation Xrotation Yrotation
    JOINT chest
    {
      OFFSET 0 11.7043 -0.48768
      CHANNELS 3 Zrotation Xrotation Yrotation
      JOINT neck
      {
        OFFSET 0 22.1894 -2.19456
        CHANNELS 3 Zrotation Xrotation Yrotation
        JOINT head
        {
          OFFSET -0.24384 7.07133 1.2192
          CHANNELS 3 Zrotation Xrotation Yrotation
          JOINT leftEye
          {
            OFFSET 4.14528 8.04674 8.04672
            CHANNELS 3 Zrotation Xrotation Yrotation
            End Site
            {
              OFFSET 1 0 0
            }
          }
          JOINT rightEye
          {
            OFFSET -3.6576 8.04674 8.04672
            CHANNELS 3 Zrotation Xrotation Yrotation
            End Site
            {
              OFFSET 1 0 0
            }
          }
        }
      }
      JOINT rCollar
      {
        OFFSET -2.68224 19.2634 -4.8768
        CHANNELS 3 Zrotation Xrotation Yrotation
        JOINT rShldr
        {
          OFFSET -8.77824 -1.95073 1.46304
          CHANNELS 3 Zrotation Xrotation Yrotation
          JOINT rForeArm
          {
            OFFSET -28.1742 -1.7115 0.48768
            CHANNELS 3 Zrotation Xrotation Yrotation
            JOINT rHand
            {
              OFFSET -22.5879 0.773209 7.07136
              CHANNELS 3 Zrotation Xrotation Yrotation
              JOINT rThumb1
              {
                OFFSET -1.2192 -0.487915 3.41376
                CHANNELS 3 Zrotation Xrotation Yrotation
                JOINT rThumb2
                {
                  OFFSET -3.37035 -0.52449 3.41376
                  CHANNELS 3 Zrotation Xrotation Yrotation
                  End Site
                  {
                    OFFSET -1.78271 -1.18214 1.43049
                  }
                }
              }
              JOINT rIndex1
              {
                OFFSET -7.75947 0.938293 5.60832
                CHANNELS 3 Zrotation Xrotation Yrotation
                JOINT rIndex2
                {
                  OFFSET -2.54057 -0.884171 1.56538
                  CHANNELS 3 Zrotation Xrotation Yrotation
                  End Site
                  {
                    OFFSET -1.62519 -0.234802 1.16502
                  }
                }
              }
              JOINT rMid1
              {
                OFFSET -8.24714 1.18213 3.41376
                CHANNELS 3 Zrotation Xrotation Yrotation
                JOINT rMid2
                {
                  OFFSET -3.10165 -0.590103 1.0647
                  CHANNELS 3 Zrotation Xrotation Yrotation
                  End Site
                  {
                    OFFSET -2.48547 -0.328903 0.83742
                  }
                }
              }
              JOINT rRing1
              {
                OFFSET -8.82822 0.546677 1.51678
                CHANNELS 3 Zrotation Xrotation Yrotation
                JOINT rRing2
                {
                  OFFSET -2.60934 -0.819778 -0.0198488
                  CHANNELS 3 Zrotation Xrotation Yrotation
                  End Site
                  {
                    OFFSET -2.33842 -0.294052 0.168128
                  }
                }
              }
              JOINT rPinky1
              {
                OFFSET -8.27202 -0.0477905 -0.4584
                CHANNELS 3 Zrotation Xrotation Yrotation
                JOINT rPinky2
                {
                  OFFSET -1.82734 -0.647385 -0.700984
                  CHANNELS 3 Zrotation Xrotation Yrotation
                  End Site
                  {
                    OFFSET -1.69225 -0.51767 -0.607171
                  }
                }
              }
            }
          }
        }
      }
      JOINT lCollar
      {
        OFFSET 2.68224 19.2634 -4.8768
        CHANNELS 3 Zrotation Xrotation Yrotation
        JOINT lShldr
        {
          OFFSET 8.77824 -1.95073 1.46304
          CHANNELS 3 Zrotation Xrotation Yrotation
          JOINT lForeArm
          {
            OFFSET 28.1742 -1.7115 0.48768
            CHANNELS 3 Zrotation Xrotation Yrotation
            JOINT lHand
            {
              OFFSET 22.5879 0.773209 7.07136
              CHANNELS 3 Zrotation Xrotation Yrotation
              JOINT lThumb1
              {
                OFFSET 1.2192 -0.487915 3.41376
                CHANNELS 3 Zrotation Xrotation Yrotation
                JOINT lThumb2
                {
                  OFFSET 3.37035 -0.52449 3.41376
                  CHANNELS 3 Zrotation Xrotation Yrotation
                  End Site
                  {
                    OFFSET 1.78271 -1.18214 1.43049
                  }
                }
              }
              JOINT lIndex1
              {
                OFFSET 7.75947 0.938293 5.60832
                CHANNELS 3 Zrotation Xrotation Yrotation
                JOINT lIndex2
                {
                  OFFSET 2.54057 -0.884171 1.56538
                  CHANNELS 3 Zrotation Xrotation Yrotation
                  End Site
                  {
                    OFFSET 1.62519 -0.234802 1.16502
                  }
                }
              }
              JOINT lMid1
              {
                OFFSET 8.24714 1.18213 3.41376
                CHANNELS 3 Zrotation Xrotation Yrotation
                JOINT lMid2
                {
                  OFFSET 3.10165 -0.590103 1.0647
                  CHANNELS 3 Zrotation Xrotation Yrotation
                  End Site
                  {
                    OFFSET 2.48547 -0.328903 0.83742
                  }
                }
              }
              JOINT lRing1
              {
                OFFSET 8.82822 0.546677 1.51678
                CHANNELS 3 Zrotation Xrotation Yrotation
                JOINT lRing2
                {
                  OFFSET 2.60934 -0.819778 -0.0198488
                  CHANNELS 3 Zrotation Xrotation Yrotation
                  End Site
                  {
                    OFFSET 2.33842 -0.294052 0.168128
                  }
                }
              }
              JOINT lPinky1
              {
                OFFSET 8.27202 -0.0477905 -0.4584
                CHANNELS 3 Zrotation Xrotation Yrotation
                JOINT lPinky2
                {
                  OFFSET 1.82734 -0.647385 -0.700984
                  CHANNELS 3 Zrotation Xrotation Yrotation
                  End Site
                  {
                    OFFSET 1.69225 -0.51767 -0.607171
                  }
                }
              }
            }
          }
        }
      }
    }
  }
  JOINT rButtock
  {
    OFFSET -8.77824 4.35084 1.2192
    CHANNELS 3 Zrotation Xrotation Yrotation
    JOINT rThigh
    {
      OFFSET 0 -1.70687 -2.19456
      CHANNELS 3 Zrotation Xrotation Yrotation
      JOINT rShin
      {
        OFFSET 0 -36.8199 0.73152
        CHANNELS 3 Zrotation Xrotation Yrotation
        JOINT rFoot
        {
          OFFSET 0.73152 -45.1104 -5.12064
          CHANNELS 3 Zrotation Xrotation Yrotation
          End Site
          {
            OFFSET -1.1221 -3.69964 12.103
          }
        }
      }
    }
  }
  JOINT lButtock
  {
    OFFSET 8.77824 4.35084 1.2192
    CHANNELS 3 Zrotation Xrotation Yrotation
    JOINT lThigh
    {
      OFFSET 0 -1.70687 -2.19456
      CHANNELS 3 Zrotation Xrotation Yrotation
      JOINT lShin
      {
        OFFSET 0 -36.8199 0.73152
        CHANNELS 3 Zrotation Xrotation Yrotation
        JOINT lFoot
        {
          OFFSET -0.73152 -45.1104 -5.12064
          CHANNELS 3 Zrotation Xrotation Yrotation
          End Site
          {
            OFFSET 1.1221 -3.69964 12.103
          }
        }
      }
    }
  }
}
MOTION
Frames:	4
Frame Time:	0.03333
-0.01720065748591352 62.012783285974 0.10830993820688876 -3.259127616882324 -1.964249849319458 8.773223876953125 -2.3327574729919434 14.29423999786377 3.7940175533294678 2.6648120880126953 -9.640628814697266 1.2033061981201172 -4.9184465408325195 14.4994478225708 -3.6649210453033447 8.908845901489258 -22.162778854370117 -5.304712772369385 0.03419927880167961 0.022001158446073532 -0.026538873091340065 0.014773745089769363 -0.004360710270702839 -0.04334293678402901 0.018473949283361435 0.03800146281719208 -0.058200396597385406 46.58454132080078 40.045101165771484 17.78217124938965 -25.646297454833984 -26.343473434448242 68.59123992919922 -1.536388635635376 -10.06162166595459 -1.529987096786499 0.012506983242928982 -0.030246341601014137 0.03191601485013962 -0.002604948589578271 0.024993613362312317 -0.017771288752555847 -0.0258820541203022 0.04688132926821709 -0.02912265993654728 7.701797008514404 5.485785484313965 0.3791157901287079 0.05913623794913292 0.015355155803263187 0.0004770061350427568 2.9496402740478516 0.9182510375976562 0.07587666809558868 -0.10172247886657715 -0.012241206131875515 0.023158496245741844 10.303282737731934 0.7405893206596375 0.02189665473997593 0.03135877475142479 -0.08017414063215256 0.015607289038598537 2.2511024475097656 -0.691165566444397 -0.24147196114063263 -0.011610712856054306 -0.0007337626884691417 -0.008805125951766968 -54.8715705871582 40.361000061035156 -25.520177841186523 24.812877655029297 -23.48659324645996 -65.32584381103516 1.8304224014282227 -14.440674781799316 1.9705173969268799 -0.023967094719409943 -0.0320250540971756 -0.007773103658109903 -0.03305894136428833 0.017967965453863144 -0.0037762096617370844 -0.018586277961730957 -0.07339553534984589 -0.0181040707975626 -7.6707892417907715 5.508349418640137 -0.38718295097351074 0.01538932416588068 -0.0024216962046921253 -0.016307100653648376 -2.876845359802246 0.9818280339241028 -0.1194530501961708 -0.05526285991072655 -0.05576620250940323 -0.02868843637406826 -10.258219718933105 0.7140518426895142 -0.019160006195306778 -0.06500169634819031 -0.007007535547018051 0.017610963433980942 -2.176950454711914 -0.7367568016052246 0.2551872134208679 0.035080328583717346 0.027796009555459023 -0.01580536924302578 -24.778732299804688 -41.791717529296875 -18.741487503051758 -1.3238266706466675 65.08960723876953 2.4262287616729736 -4.58323335647583 -11.702348709106445 -9.860467910766602 0.0316176675260067 -0.048657406121492386 -0.04793886840343475 30.132644653320312 -42.78392028808594 20.988645553588867 1.3329359292984009 65.98873138427734 -2.4495112895965576 4.906868934631348 -11.545458793640137 13.01213550567627
-0.053189244387828044 62.6253692922541 0.19117341969151322 -3.270382881164551 -1.861532211303711 9.05587387084961 -2.265746593475342 14.082249641418457 3.651583194732666 2.6884663105010986 -9.52737808227539 1.116991400718689 -4.923203945159912 14.504631996154785 -3.632596015930176 8.861109733581543 -22.098304748535156 -5.237007141113281 0.06830444931983948 0.02528713271021843 -0.056532591581344604 0.018732799217104912 0.0006749272579327226 -0.04007107391953468 0.08574613183736801 0.056301988661289215 -0.07588285952806473 46.55101776123047 40.147987365722656 17.943906784057617 -25.63484001159668 -26.345970153808594 68.54925537109375 -1.5440707206726074 -10.126530647277832 -1.5671316385269165 0.00701639149338007 -0.05183512344956398 0.04137338697910309 -0.016084574162960052 0.017793985083699226 -0.029718244448304176 -0.034239932894706726 0.0860738679766655 -0.028821159154176712 7.6819257736206055 5.522800922393799 0.3340621292591095 0.09348582476377487 0.0731232613325119 0.00994888972491026 2.953944206237793 0.8762116432189941 0.04412751644849777 -0.15691794455051422 -0.02941678836941719 0.007105955854058266 10.322530746459961 0.7539448142051697 -0.007261026185005903 0.05763288959860802 -0.08452935516834259 0.06355700641870499 2.270393133163452 -0.6788331270217896 -0.25917959213256836 -0.04401133954524994 0.00827440619468689 -0.009645606391131878 -54.92789840698242 40.493385314941406 -25.413599014282227 24.774320602416992 -23.554080963134766 -65.5312271118164 1.7436811923980713 -14.315570831298828 1.913448452949524 -0.0536995530128479 -0.04284863919019699 -0.042534224689006805 -0.08518152683973312 0.035489197820425034 -0.01698758266866207 -0.025736935436725616 -0.1126931831240654 -0.014706497080624104 -7.613872528076172 5.520426273345947 -0.36836373805999756 0.017869947478175163 -0.020380167290568352 -0.007055987138301134 -2.873708724975586 0.9574083089828491 -0.1369350701570511 -0.08026286214590073 -0.09126220643520355 -0.04069477692246437 -10.244451522827148 0.7169057130813599 -0.03298034891486168 -0.10775280743837357 0.0031265546567738056 0.0027408706955611706 -2.1340761184692383 -0.7375195622444153 0.2997990548610687 0.053296320140361786 0.04504728317260742 -0.01801469177007675 -24.87021255493164 -41.874446868896484 -18.941865921020508 -1.337119221687317 65.11750030517578 2.39548397064209 -4.493716239929199 -11.480016708374023 -9.79340934753418 -0.006515049375593662 -0.10312053561210632 -0.05000991001725197 30.10740089416504 -42.7396240234375 20.93048858642578 1.2425493001937866 65.73483276367188 -2.403923511505127 4.897917747497559 -11.3114013671875 12.996819496154785
-0.19769032729420452 59.14456828743221 -0.3373332247099979 -147.2380828857422 54.418094635009766 -93.99341583251953 4.002086162567139 25.576156616210938 -3.2627525329589844 5.592370510101318 -10.997989654541016 -0.08969025313854218 -10.061651229858398 22.931108474731445 -18.932653427124023 22.567909240722656 -30.742820739746094 -31.16115379333496 0.1988120824098587 0.19803252816200256 -0.01494017243385315 -0.004231806844472885 -0.10229741036891937 0.08599338680505753 0.010680468752980232 0.09114418923854828 -0.39454561471939087 44.02975082397461 -1.895033359527588 5.860234260559082 -18.859285354614258 -12.89362621307373 37.032249450683594 -0.26818791031837463 12.99025821685791 1.4849504232406616 -0.25803226232528687 -0.1111878752708435 -0.1322462111711502 -0.3510075509548187 0.5888211131095886 -0.14421355724334717 0.34312185645103455 0.1690395623445511 0.2723962366580963 7.473180770874023 5.6511945724487305 0.45740440487861633 0.5543780326843262 -0.936061680316925 0.1397537738084793 2.9654929637908936 0.8389734625816345 0.6177545785903931 -0.30313751101493835 -0.12860716879367828 0.7908133864402771 10.147967338562012 0.7638520002365112 0.49746212363243103 -0.052872058004140854 -0.2429467886686325 0.11941228806972504 2.380305051803589 -0.5016993284225464 -0.2762472629547119 0.21576547622680664 0.23980985581874847 -0.02236034721136093 -100.36990356445312 56.72663497924805 32.68082046508789 27.253889083862305 -39.104888916015625 -84.96598052978516 12.185291290283203 -68.2668685913086 19.276050567626953 0.1590694934129715 0.034675877541303635 0.1777230203151703 0.05651282146573067 -0.102351114153862 -0.19906993210315704 -0.03660924732685089 -0.24642713367938995 -0.1182975247502327 -7.530910015106201 5.502154350280762 -0.2658679187297821 0.011017917655408382 -0.2326892465353012 -0.2827819287776947 -2.8516845703125 0.9241498112678528 0.25406989455223083 0.04841846600174904 -0.08334323018789291 0.26076802611351013 -10.07149887084961 0.6872462034225464 -0.04660412669181824 0.012649578973650932 0.13345395028591156 -0.0288376584649086 -1.9927624464035034 -0.5203545689582825 0.11765838414430618 0.007773769553750753 -0.042412612587213516 -0.04059484228491783 -39.5072135925293 -43.43893814086914 -26.877775192260742 -1.4962661266326904 65.71057891845703 2.515885353088379 -2.8215036392211914 -10.674214363098145 -5.354924201965332 0.001342198927886784 -0.13868005573749542 0.04020492732524872 72.58354187011719 -53.88764953613281 59.501949310302734 171.00784301757812 82.94987487792969 -173.06968688964844 6.2035698890686035 -21.852996826171875 10.022354125976562
-0.04866632513595734 59.10670854886283 -0.6469525833366988 -123.37555694580078 71.45771789550781 -75.61640167236328 2.3117759227752686 31.837732315063477 -2.9591195583343506 8.648114204406738 -10.582313537597656 0.9447758793830872 -8.991515159606934 23.612756729125977 -18.822158813476562 21.78303337097168 -31.99245262145996 -31.954153060913086 0.20903953909873962 0.3067362904548645 0.17482219636440277 -0.20769965648651123 -0.07481203973293304 0.07600627094507217 -0.5656863451004028 -0.06186092272400856 -0.7203457951545715 40.99497604370117 1.6253424882888794 -3.2156007289886475 -18.011869430541992 -11.95427417755127 34.27667999267578 -0.07438862323760986 3.1958088874816895 -0.27901241183280945 -0.2644864618778229 -0.6891188621520996 0.4183974862098694 0.19477733969688416 0.34780529141426086 -0.22836272418498993 0.11920364201068878 -0.1759001761674881 0.08257660269737244 7.987464427947998 5.005426406860352 0.20858173072338104 0.1853874921798706 -0.4179973602294922 0.24016942083835602 2.5947344303131104 0.8343952298164368 -0.1523398458957672 0.27991119027137756 0.11744634062051773 0.047348327934741974 9.686793327331543 0.9083399176597595 0.10251443833112717 0.5323789715766907 0.11131627857685089 0.21799436211585999 2.3548758029937744 -1.2308225631713867 -0.0786093920469284 -0.34552931785583496 0.24530479311943054 0.4959448277950287 -111.93132781982422 50.02682876586914 42.17291259765625 27.307697296142578 -37.613922119140625 -82.23255157470703 17.661426544189453 -71.93953704833984 24.351428985595703 0.11972635239362717 0.18388405442237854 -0.6277199387550354 0.7839066982269287 -0.45402368903160095 -0.2995585501194 0.48364120721817017 -0.5950450301170349 -0.12033765017986298 -7.603239059448242 5.41089391708374 -0.5206493139266968 0.1354130208492279 0.1402541846036911 0.2072218507528305 -3.0288569927215576 0.9165113568305969 -0.0478549525141716 -0.37974536418914795 -0.26807495951652527 -0.2442578822374344 -10.548534393310547 0.13398420810699463 0.26707154512405396 -0.03425806015729904 0.8533273935317993 -0.19213776290416718 -2.3203587532043457 -0.6601885557174683 0.18763555586338043 0.24846644699573517 -0.029013188555836678 0.013423746451735497 -39.53033447265625 -49.194068908691406 -27.649763107299805 -1.9349383115768433 74.39600372314453 3.395740509033203 -1.9878047704696655 -13.349135398864746 -1.1903703212738037 -0.20588600635528564 0.26130765676498413 0.01232173666357994 69.8353500366211 -56.34022521972656 60.01236343383789 170.72384643554688 79.30162811279297 -171.33868408203125 7.737990379333496 -27.644542694091797 11.034941673278809
